<svg width="24" height="25" viewBox="0 0 24 25" fill="none" xmlns="http://www.w3.org/2000/svg">
<path d="M10.4549 1.75658L10.4687 1.74747L10.4815 1.7371L11.4063 0.989791C11.7603 0.779372 12.2496 0.780954 12.6016 0.994537L13.6455 1.74437C13.9936 2.01869 14.4596 2.19319 14.9526 2.03663L16.1736 1.7475C16.5574 1.66377 16.9881 1.83411 17.2046 2.22166L17.2045 2.22169L17.2076 2.22706L17.8508 3.33186C18.0741 3.76927 18.4571 4.07641 18.983 4.15433L20.1527 4.38699C20.5951 4.47498 20.8907 4.82211 20.9336 5.19296L21.0511 6.47859L21.0519 6.48756L21.0532 6.49649C21.1249 6.99553 21.3479 7.36861 21.7121 7.65837L21.724 7.66781L21.7366 7.67619L22.7887 8.37377C23.1348 8.63646 23.2577 9.06186 23.1304 9.44183L22.7179 10.6726C22.5657 11.1266 22.6409 11.6433 22.8679 12.0197L22.8694 12.0221L23.5136 13.0705C23.736 13.4737 23.6806 13.8827 23.3922 14.1695L23.3845 14.1772L23.3772 14.1854L22.4933 15.1818L22.4876 15.1881L22.4823 15.1947C22.2005 15.5451 22.0394 15.9899 22.1131 16.4552L22.2299 17.6746L22.23 17.6763C22.2745 18.1189 22.0561 18.4988 21.6707 18.6691L21.6692 18.6698L20.4905 19.1973L20.484 19.2002L20.4777 19.2034C20.0555 19.4133 19.7438 19.7156 19.5929 20.2303L19.1837 21.3933L19.1768 21.4129L19.1722 21.4332C19.0985 21.7631 18.7436 22.0387 18.2762 22.0387H16.9797C16.5173 22.0387 16.0704 22.264 15.773 22.6272L14.9566 23.4972L14.9564 23.4971L14.949 23.5055C14.6372 23.8599 14.2117 23.9406 13.8218 23.7685C13.8215 23.7684 13.8213 23.7683 13.8211 23.7682L12.65 23.2441C12.2015 23.0234 11.7362 23.0239 11.2878 23.2457L10.1754 23.7698C9.78621 23.9402 9.36203 23.859 9.05099 23.5055L9.05114 23.5054L9.0429 23.4966L8.16777 22.5682C7.87026 22.2052 7.41377 21.9721 6.87928 22.0387H5.66482C5.27656 22.0387 4.88673 21.7757 4.75981 21.4004L4.34809 20.1134L4.34812 20.1134L4.34659 20.1089C4.19288 19.6503 3.88046 19.3522 3.46339 19.1448L3.45322 19.1397L3.44274 19.1353L2.32641 18.6679C1.94283 18.4969 1.72558 18.1178 1.76999 17.6763L1.77028 17.6731L1.88736 16.3922C1.92175 16.1443 1.90536 15.9117 1.82411 15.6895C1.74401 15.4704 1.60929 15.2845 1.44138 15.1159L0.623733 14.1865L0.616032 14.1777L0.607767 14.1695C0.318569 13.8819 0.263649 13.4714 0.488295 13.0671L1.13489 11.9563L1.1403 11.947L1.14512 11.9374C1.35082 11.5283 1.43773 11.0783 1.28213 10.614L1.28217 10.614L1.28043 10.6091L0.868841 9.43953C0.742167 9.05837 0.867058 8.63197 1.21613 8.37011L2.27417 7.61014L2.28116 7.60512L2.28789 7.59976C2.61423 7.34012 2.94334 6.96246 2.95026 6.40599L3.06635 5.19367C3.10896 4.82256 3.40461 4.47504 3.84729 4.38699L3.84733 4.38721L3.85965 4.3843L5.08254 4.09472C5.60624 4.01504 5.98742 3.70746 6.20963 3.27034L6.79543 2.22166C7.01317 1.83187 7.3886 1.66209 7.83177 1.74871L9.12357 2.0407L9.13348 2.04294L9.1435 2.0446C9.58127 2.11716 10.0249 2.04166 10.4549 1.75658Z" stroke="#CCCCCC" stroke-width="0.7"/>
<path d="M17.28 9.02319L10.02 15.6655L6.71997 12.6463" stroke="#CCCCCC" stroke-width="0.7" stroke-linecap="round" stroke-linejoin="round"/>
</svg>
