<svg width="34" height="34" viewBox="0 0 34 34" fill="none" xmlns="http://www.w3.org/2000/svg">
<path d="M17.0229 3.55042L17.0228 3.55035C17.0071 3.55391 16.992 3.55789 16.9777 3.56239C16.8852 3.59657 16.7941 3.65893 16.7181 3.74337L16.6734 3.79304H16.6066H0.604719H0.598454L0.59846 3.79291C0.584821 3.79234 0.570965 3.79228 0.557285 3.79274C0.324179 3.81798 0.1498 4.01216 0.15 4.24086L0.15 4.24099L0.15 24.0473C0.151167 24.2927 0.352756 24.4943 0.605318 24.4953H19.4148H19.5648V24.6453V33.0439V33.0453C19.5612 33.454 20.0736 33.6603 20.3591 33.3533L20.3597 33.3526L22.3449 31.244L22.4542 31.1278L22.5634 31.2441L24.5437 33.3527L24.5442 33.3533C24.8298 33.6603 25.3422 33.454 25.3385 33.0453L25.3385 33.0439L25.3385 24.6453V24.4953H25.4885H33.3941C33.6466 24.4943 33.8481 24.2929 33.8495 24.0476L17.0229 3.55042ZM17.0229 3.55042L17.0276 3.54918M17.0229 3.55042L17.0276 3.54918M17.0276 3.54918L29.7992 0.207874C29.7994 0.207837 29.7995 0.207799 29.7997 0.207762M17.0276 3.54918L29.7997 0.207762M29.7997 0.207762C29.8393 0.1977 29.8773 0.19318 29.9126 0.193752L29.7997 0.207762ZM29.3145 1.43737V1.24309L29.1266 1.29225L17.5656 4.31598L17.4535 4.34529V4.4611V23.1951V23.3894L17.6415 23.3402L29.2025 20.3151L29.3145 20.2858V20.17V1.43737ZM1.21372 4.69455H1.06372V4.84455V23.4448V23.5948H1.21372H16.3892H16.5392V23.4448V4.84455V4.69455H16.3892H1.21372ZM30.3546 4.69455H30.2046L30.2046 4.84454L30.2038 20.47V20.4703C30.2042 20.7368 29.9863 21.0206 29.7224 21.0916C29.7223 21.0916 29.7222 21.0916 29.7221 21.0916L21.2825 23.2997L21.3204 23.5948H32.7843H32.9343V23.4448V4.84455V4.69455H32.7843H30.3546ZM25.7886 6.12207C25.8039 6.12024 25.8188 6.11914 25.8335 6.1188L25.8444 6.11872C26.3929 6.11487 26.4783 6.88258 25.9546 7.00664L25.9546 7.00656L25.95 7.00783L20.903 8.3768C20.7459 8.41939 20.6229 8.39159 20.5323 8.33335C20.4387 8.27322 20.3697 8.17395 20.338 8.05993C20.3063 7.9459 20.3146 7.82617 20.3636 7.72797C20.4111 7.633 20.5019 7.54728 20.659 7.50469L25.7058 6.14027L25.7058 6.14036L25.7109 6.13881C25.7358 6.13113 25.7616 6.12562 25.7886 6.12207ZM25.8318 11.2181L25.832 11.2181C26.3839 11.2038 26.4793 11.9766 25.9538 12.1049L25.9538 12.1049L25.9503 12.1058L20.9033 13.4703L20.9032 13.4701L20.8959 13.4725C20.7329 13.5257 20.6059 13.5009 20.5128 13.4437C20.4162 13.3844 20.344 13.2825 20.3111 13.1644C20.2781 13.0463 20.2873 12.9228 20.3391 12.8237C20.3889 12.7283 20.4845 12.6427 20.6521 12.6058L20.6522 12.606L20.6591 12.6041L25.706 11.2386L25.706 11.2387L25.7096 11.2376C25.7497 11.2257 25.7908 11.2191 25.8318 11.2181ZM25.706 16.3387L25.706 16.3388L25.7116 16.3371C25.746 16.3263 25.7815 16.3197 25.8173 16.3175L25.832 16.3171C26.3839 16.3028 26.4793 17.0756 25.9538 17.2039L25.9538 17.2039L25.9503 17.2048L20.9033 18.569L20.9032 18.5688L20.8959 18.5712C20.7329 18.6244 20.6059 18.5996 20.5128 18.5424C20.4162 18.4831 20.344 18.3812 20.3111 18.2632C20.2781 18.1451 20.2873 18.0215 20.3391 17.9224C20.3889 17.827 20.4845 17.7415 20.6521 17.7046L20.6522 17.7047L20.659 17.7029L25.706 16.3387ZM4.19622 18.1949L4.20998 18.1939C4.21852 18.194 4.22751 18.1944 4.23696 18.195L4.23693 18.1954H4.24695H13.3543V18.1954L13.3576 18.1953C13.9812 18.1816 13.9809 19.1093 13.3576 19.0956L13.3576 19.0955H13.3543H4.24695V19.0955L4.24298 19.0956C4.08473 19.0998 3.97358 19.0458 3.89965 18.9702C3.82345 18.8922 3.77898 18.7829 3.77305 18.6675C3.76711 18.552 3.80016 18.4389 3.86787 18.3539C3.93354 18.2714 4.03844 18.2066 4.19622 18.1949ZM20.6295 24.4954H20.4795V24.6454V31.5208V31.8999L20.7389 31.6234L22.1144 30.1572L22.1146 30.157C22.2957 29.9634 22.6062 29.9634 22.7873 30.157L22.7876 30.1573L24.1632 31.6188L24.4224 31.8942V31.5159V24.6454V24.4954H24.2724H20.6295ZM4.2466 9.49162C4.08407 9.49162 3.97349 9.43282 3.90223 9.3536C3.82861 9.27176 3.78875 9.15869 3.78875 9.04097C3.78875 8.92326 3.82861 8.81019 3.90223 8.72835C3.97349 8.64913 4.08407 8.59033 4.2466 8.59033H13.354C13.5165 8.59033 13.6271 8.64913 13.6983 8.72835C13.772 8.81019 13.8118 8.92326 13.8118 9.04097C13.8118 9.15869 13.772 9.27176 13.6983 9.3536C13.6271 9.43282 13.5165 9.49162 13.354 9.49162H4.2466ZM4.2466 14.2937C4.08407 14.2937 3.97349 14.2349 3.90223 14.1557C3.82861 14.0738 3.78875 13.9608 3.78875 13.8431C3.78875 13.7253 3.82861 13.6123 3.90223 13.5304C3.97349 13.4512 4.08407 13.3924 4.2466 13.3924H13.354C13.5165 13.3924 13.6271 13.4512 13.6983 13.5304C13.772 13.6123 13.8118 13.7253 13.8118 13.8431C13.8118 13.9608 13.772 14.0738 13.6983 14.1557C13.6271 14.2349 13.5165 14.2937 13.354 14.2937H4.2466Z" fill="#CCCCCC" stroke="white" stroke-width="0.3"/>
</svg>
