<svg width="18" height="17" viewBox="0 0 18 17" fill="none" xmlns="http://www.w3.org/2000/svg">
<path d="M7.93855 0.927053C8.2379 0.00574255 9.54132 0.00573969 9.84067 0.92705L11.11 4.83355C11.2438 5.24557 11.6278 5.52454 12.061 5.52454L16.1686 5.52454C17.1373 5.52454 17.5401 6.76415 16.7563 7.33355L13.4333 9.7479C13.0828 10.0025 12.9361 10.4539 13.07 10.8659L14.3393 14.7724C14.6387 15.6937 13.5842 16.4599 12.8005 15.8905L9.4774 13.4761C9.12691 13.2215 8.65231 13.2215 8.30183 13.4761L4.97876 15.8905C4.19504 16.4599 3.14056 15.6938 3.43991 14.7724L4.70921 10.8659C4.84309 10.4539 4.69643 10.0025 4.34594 9.7479L1.02288 7.33355C0.239162 6.76415 0.641935 5.52454 1.61066 5.52454L5.7182 5.52454C6.15142 5.52454 6.53538 5.24557 6.66925 4.83355L7.93855 0.927053Z" fill="#F2C94C"/>
</svg>
